# xmcd CD database file
#
# Track frame offsets:
#	150
#	21988
#	39565
#	61400
#
# Disc length: 1051 seconds
#
# Revision: 0
# Processed by: cddbd v1.5PL3 Copyright (c) Steve Scherf et al.
# Submitted via: CDex 1.50
#
DISCID=2f041904
DTITLE=水木一郎/堀江美都子 - サブマリンスーパー99
DYEAR=2003
DGENRE=Anime
TTITLE0=セイリング 未来へ
TTITLE1=悲しみは天に還して
TTITLE2=セイリング 未来へ（カラオケ）
TTITLE3=悲しみは天に還して（カラオケ）
EXTD=YEAR: 2003
EXTT0=
EXTT1=
EXTT2=
EXTT3=
PLAYORDER=
